<svg width="131" height="131" viewBox="0 0 131 131" fill="none" xmlns="http://www.w3.org/2000/svg">
<path d="M65.5 0.325012C29.7236 0.325012 0.625 29.4236 0.625 65.2C0.625 100.976 29.7236 130.075 65.5 130.075C101.276 130.075 130.375 100.976 130.375 65.2C130.375 29.4236 101.276 0.325012 65.5 0.325012ZM65.4305 34.8336C67.8218 34.7863 69.794 36.6842 69.8425 39.0716V39.2405V60.8569H91.4588C93.8501 60.8047 95.8273 62.6989 95.8795 65.0912C95.9316 67.4786 94.0375 69.4597 91.6501 69.5069H91.4551H69.8388V91.1232C69.7828 93.5145 67.8056 95.4047 65.4181 95.3526C63.104 95.2966 61.2399 93.4411 61.1888 91.1232V69.5069H39.5724C37.1811 69.559 35.2039 67.6649 35.1518 65.2726C35.0996 62.8851 36.9937 60.9041 39.3861 60.8569H39.5762H61.1926V39.2405C61.1453 36.8492 63.0433 34.877 65.4306 34.8335L65.4305 34.8336Z" fill="black"/>
</svg>
