<svg width="132" height="132" viewBox="0 0 132 132" fill="none" xmlns="http://www.w3.org/2000/svg">
<path d="M129.463 119.072L105.987 95.7563C124.318 72.2801 122.389 38.8331 101.323 17.7683C90.2277 6.67282 75.4344 0.562134 59.676 0.562134C43.9179 0.562134 29.124 6.67282 18.0288 17.7683C6.93332 28.8638 0.822632 43.6571 0.822632 59.4155C0.822632 75.1739 6.93332 89.9675 18.0288 101.063C29.1243 112.158 43.9176 118.269 59.676 118.269C72.7005 118.269 85.5648 113.927 95.856 105.726L119.172 129.363C120.619 130.81 122.387 131.454 124.318 131.454C126.247 131.454 128.016 130.649 129.464 129.363C132.358 126.629 132.358 121.967 129.463 119.072L129.463 119.072ZM104.058 59.4152C104.058 71.3147 99.395 82.409 91.0332 90.7712C82.6713 99.1334 71.4156 103.796 59.6772 103.796C47.9388 103.796 36.6833 99.1331 28.3212 90.7712C19.959 82.4093 15.2966 71.1536 15.2966 59.4152C15.2966 47.5157 19.9593 36.4214 28.3212 28.0592C36.683 19.697 47.9388 15.0347 59.6772 15.0347C71.5766 15.0347 82.671 19.6973 91.0332 28.0592C99.3939 36.42 104.058 47.5154 104.058 59.4152Z" fill="black"/>
</svg>
