<svg width="140" height="140" viewBox="0 0 140 140" fill="none" xmlns="http://www.w3.org/2000/svg">
<path d="M62.3719 0.742632C27.0226 4.01343 0.970337 34.2833 0.970337 70.2585C0.970337 108.569 32.1702 139.681 70.4752 139.681C108.78 139.681 139.93 108.572 139.93 70.2585C139.93 34.355 113.841 4.14495 78.6253 0.742632C77.3975 0.620929 76.1708 0.99142 75.2155 1.77441C74.2602 2.55631 73.656 3.68718 73.5343 4.91507C73.4126 6.14393 73.7842 7.37064 74.5671 8.32593C75.3501 9.28015 76.481 9.88435 77.7089 10.005C108.173 12.9507 130.668 38.8061 130.668 70.2596C130.668 103.566 103.773 130.418 70.4742 130.418C37.1753 130.418 10.2802 103.566 10.2802 70.2596C10.2802 38.6986 32.6087 12.8338 63.1925 10.005C64.4214 9.89728 65.5566 9.30491 66.3481 8.3593C67.1408 7.41368 67.5242 6.19235 67.4154 4.9636C67.3066 3.73485 66.7143 2.59957 65.7687 1.80805C64.823 1.01644 63.6006 0.633036 62.373 0.74288L62.3719 0.742632ZM70.4269 39.2406C69.1905 39.2525 68.0101 39.7597 67.1495 40.6483C66.289 41.5358 65.8183 42.7312 65.8441 43.9676V65.58H44.2361C44.0757 65.5725 43.9141 65.5725 43.7536 65.58C42.0994 65.6662 40.6163 66.629 39.8647 68.1045C39.1119 69.5811 39.2034 71.3464 40.1059 72.7368C41.0074 74.1262 42.582 74.9296 44.2361 74.8434H65.8441V96.4558C65.8269 97.6955 66.3073 98.8899 67.1775 99.773C68.0477 100.656 69.2356 101.153 70.4753 101.153C71.7139 101.153 72.9018 100.656 73.772 99.773C74.6422 98.8898 75.1226 97.6954 75.1053 96.4558V74.8434H96.7133C97.953 74.8596 99.1463 74.3792 100.028 73.509C100.909 72.6388 101.406 71.4509 101.406 70.2123C101.406 68.9727 100.909 67.7858 100.028 66.9145C99.1462 66.0443 97.9529 65.5639 96.7133 65.5801H75.1053V43.9677C75.1312 42.7151 74.6487 41.5045 73.7666 40.6139C72.8845 39.7221 71.6794 39.2267 70.4269 39.2407L70.4269 39.2406Z" fill="black"/>
</svg>
