<svg width="163" height="163" viewBox="0 0 163 163" fill="none" xmlns="http://www.w3.org/2000/svg">
<path d="M81.5 31.5898C68.2898 31.5898 55.6207 36.8375 46.2791 46.1781C36.9384 55.5201 31.6908 68.1888 31.6908 81.399C31.6908 94.6093 36.9384 107.278 46.2791 116.62C55.6211 125.961 68.2898 131.208 81.5 131.208C94.7102 131.208 107.379 125.961 116.721 116.62C126.062 107.278 131.309 94.6093 131.309 81.399C131.294 68.1937 126.041 55.5326 116.704 46.1946C107.366 36.8579 94.7049 31.605 81.4997 31.5895L81.5 31.5898ZM38.9102 81.4C38.9282 70.7331 42.9398 60.4605 50.1546 52.6035C57.3694 44.7466 67.2644 39.8781 77.8914 38.9538V123.846C67.2644 122.922 57.3694 118.053 50.1546 110.196C42.9398 102.339 38.928 92.0669 38.9102 81.4ZM77.8898 19.8088V4.3889C77.8898 2.39599 79.5063 0.779358 81.4993 0.779358C83.4924 0.779358 85.1089 2.39583 85.1089 4.3889V19.8088C85.1089 21.8017 83.4924 23.4183 81.4993 23.4183C79.5063 23.4183 77.8898 21.8019 77.8898 19.8088ZM24.4991 29.424C23.5014 27.9893 23.6741 26.0455 24.9103 24.8106C26.1452 23.5744 28.0891 23.4017 29.5237 24.3994L40.4962 35.1993C41.1755 35.8761 41.5571 36.7964 41.5571 37.7542C41.5571 38.7133 41.1755 39.6324 40.4962 40.3105C39.8066 40.9769 38.8849 41.3494 37.9258 41.3494C36.9577 41.401 36.009 41.0568 35.2987 40.3968L24.4991 29.424ZM23.5168 81.399H23.5181C23.5181 82.3568 23.1378 83.2746 22.4611 83.9514C21.7843 84.6281 20.8652 85.0084 19.9087 85.0084H4.48881C2.49591 85.0084 0.879272 83.3919 0.879272 81.3989C0.879272 79.4058 2.49574 77.7893 4.48881 77.7893H19.9087C20.8652 77.7893 21.7843 78.1696 22.4611 78.8463C23.1378 79.5231 23.5181 80.4409 23.5181 81.3987L23.5168 81.399ZM40.4963 122.402C41.1756 123.078 41.5572 123.999 41.5572 124.956C41.5572 125.915 41.1756 126.835 40.4963 127.513L29.5238 138.399C28.8445 139.083 27.9189 139.469 26.9534 139.466C25.9969 139.474 25.0778 139.087 24.4127 138.399C23.7346 137.721 23.3531 136.802 23.3531 135.842C23.3531 134.883 23.7346 133.964 24.4127 133.288L35.2987 122.402C35.9793 121.695 36.9177 121.297 37.8974 121.297C38.8772 121.297 39.8157 121.695 40.4963 122.402ZM85.109 142.989V158.409C85.109 160.402 83.4925 162.019 81.4995 162.019C79.5064 162.019 77.8899 160.402 77.8899 158.409V142.989C77.8899 140.996 79.5064 139.38 81.4995 139.38C83.4925 139.38 85.109 140.996 85.109 142.989ZM138.5 133.374C139.178 134.051 139.559 134.971 139.559 135.929C139.559 136.888 139.178 137.807 138.5 138.485C137.835 139.175 136.915 139.56 135.958 139.554C134.993 139.555 134.068 139.17 133.389 138.485L122.503 127.599C121.068 126.164 121.068 123.836 122.503 122.402C123.937 120.967 126.265 120.967 127.7 122.402L138.5 133.374ZM162.119 81.399C162.119 82.3568 161.739 83.2746 161.062 83.9514C160.385 84.6281 159.466 85.0084 158.51 85.0084H143.09C141.097 85.0084 139.48 83.3919 139.48 81.3989C139.48 79.4058 141.097 77.7893 143.09 77.7893H158.51C159.466 77.7893 160.385 78.1696 161.062 78.8463C161.739 79.5231 162.119 80.4409 162.119 81.3987V81.399ZM122.503 40.3965C121.823 39.7198 121.442 38.7994 121.442 37.8416C121.442 36.8825 121.823 35.9634 122.503 35.2854L133.475 24.3993C134.086 23.5228 135.053 22.9607 136.118 22.8667C137.182 22.7713 138.234 23.1528 138.99 23.9095C139.746 24.6649 140.128 25.7168 140.033 26.7815C139.938 27.8463 139.376 28.8131 138.5 29.4241L127.7 40.3966C127.025 41.0669 126.111 41.4408 125.159 41.4356C124.171 41.4588 123.213 41.0849 122.503 40.3965Z" fill="black"/>
</svg>
