<svg width="149" height="135" viewBox="0 0 149 135" fill="none" xmlns="http://www.w3.org/2000/svg">
<path fill-rule="evenodd" clip-rule="evenodd" d="M74.4999 134.512C113.607 134.512 148.068 106.005 148.068 67.632C148.068 29.2566 113.607 0.751999 74.4999 0.751999C35.393 0.751999 0.931885 29.2575 0.931885 67.632C0.931885 106.004 35.393 134.512 74.4999 134.512ZM74.4999 121.136C107.743 121.136 134.692 97.1813 134.692 67.6317C134.692 62.9874 134.026 58.482 132.776 54.1867C124.882 52.3498 115.537 46.8087 107.42 40.2718C102.43 36.2411 99.2434 30.0248 96.4025 24.4848L96.2357 24.1595C89.1482 31.4745 81.7457 38.519 68.9842 44.8436C57.7095 50.6866 49.6377 52.5832 39.3871 52.5832C45.025 47.5027 47.7471 38.8698 47.7471 32.5195C46.519 33.5761 45.3702 34.6899 44.2983 35.7291C43.4528 36.549 42.6562 37.3223 41.9028 37.9859L41.4642 38.3743C32.8943 45.9365 26.4341 51.6386 16.2257 54.1821C14.9742 58.4801 14.3071 62.9864 14.3071 67.6319C14.3071 97.1812 41.2568 121.136 74.4991 121.136L74.4999 121.136Z" fill="black"/>
<path d="M51.0918 94.384C51.0918 105.465 61.5722 114.448 74.4992 114.448C87.4261 114.448 97.9066 105.465 97.9066 94.384H51.0918Z" fill="black"/>
<path fill-rule="evenodd" clip-rule="evenodd" d="M107.94 91.04C117.175 91.04 124.66 83.5536 124.66 74.32C124.66 65.0852 117.175 57.6 107.94 57.6C98.7052 57.6 91.22 65.0852 91.22 74.32C91.22 83.5536 98.7052 91.04 107.94 91.04ZM118.44 69.5488C118.44 73.2425 115.445 76.2362 111.752 76.2362C108.058 76.2362 105.064 73.2425 105.064 69.5488C105.064 65.8552 108.058 62.8602 111.752 62.8602C115.445 62.8602 118.44 65.8552 118.44 69.5488ZM101.72 77.9088C103.566 77.9088 105.064 76.4113 105.064 74.5639C105.064 72.7177 103.566 71.2202 101.72 71.2202C99.8727 71.2202 98.3764 72.7177 98.3764 74.5639C98.3764 76.4113 99.8728 77.9088 101.72 77.9088Z" fill="black"/>
<path fill-rule="evenodd" clip-rule="evenodd" d="M41.0598 91.04C50.2947 91.04 57.7798 83.5536 57.7798 74.32C57.7798 65.0852 50.2947 57.6 41.0598 57.6C31.825 57.6 24.3398 65.0852 24.3398 74.32C24.3398 83.5536 31.825 91.04 41.0598 91.04ZM51.3035 69.5488C51.3035 73.2425 48.3098 76.2362 44.6161 76.2362C40.9213 76.2362 37.9275 73.2425 37.9275 69.5488C37.9275 65.8552 40.9213 62.8602 44.6161 62.8602C48.3098 62.8602 51.3035 65.8552 51.3035 69.5488ZM34.5835 77.9088C36.4298 77.9088 37.9272 76.4113 37.9272 74.5639C37.9272 72.7177 36.4297 71.2202 34.5835 71.2202C32.7361 71.2202 31.2398 72.7177 31.2398 74.5639C31.2398 76.4113 32.7362 77.9088 34.5835 77.9088Z" fill="black"/>
</svg>
