<svg width="153" height="139" viewBox="0 0 153 139" fill="none" xmlns="http://www.w3.org/2000/svg">
<path d="M48.98 96.84H104.02V110.6H48.98V96.84Z" fill="black"/>
<path fill-rule="evenodd" clip-rule="evenodd" d="M76.5 138.12C116.73 138.12 152.18 108.795 152.18 69.32C152.18 29.8429 116.73 0.519997 76.5 0.519997C36.2704 0.519997 0.819946 29.8438 0.819946 69.32C0.819946 108.794 36.2704 138.12 76.5 138.12ZM76.5 124.36C110.697 124.36 138.42 99.7176 138.42 69.3197C138.42 64.5421 137.735 59.9073 136.449 55.4887C128.328 53.5991 118.715 47.8989 110.366 41.1743C105.232 37.0279 101.954 30.6332 99.0313 24.9342L98.8598 24.5994C91.5688 32.1244 83.9538 39.3712 70.8259 45.8774C59.2276 51.8882 50.924 53.8391 40.3792 53.8391C46.1789 48.6128 48.9791 39.7321 48.9791 33.1994C47.7158 34.2865 46.534 35.4322 45.4313 36.5012C44.5615 37.3447 43.7409 38.1401 42.967 38.8228L42.5159 39.2211C33.7012 47.0017 27.0543 52.8675 16.5528 55.484C15.2642 59.9054 14.5792 64.5411 14.5792 69.3199C14.5792 99.7175 42.3025 124.36 76.4992 124.36L76.5 124.36Z" fill="black"/>
<path d="M62.74 64.16L54.14 55.56L45.54 64.16L36.9916 55.56L28.34 64.16L36.9916 72.76L28.34 81.36L36.9916 89.96L45.54 81.36L54.14 89.96L62.74 81.36L54.14 72.76L62.74 64.16Z" fill="black"/>
<path d="M124.66 64.16L116.06 55.56L107.46 64.16L98.9104 55.56L90.26 64.16L98.9104 72.76L90.26 81.36L98.9104 89.96L107.46 81.36L116.06 89.96L124.66 81.36L116.06 72.76L124.66 64.16Z" fill="black"/>
</svg>
